<?xml version="1.0" standalone="no"?>
<!DOCTYPE svg PUBLIC "-//W3C//DTD SVG 20010904//EN"
 "http://www.w3.org/TR/2001/REC-SVG-20010904/DTD/svg10.dtd">
<svg version="1.0" xmlns="http://www.w3.org/2000/svg"
 width="2000.000000pt" height="2000.000000pt" viewBox="0 0 2000.000000 2000.000000"
 preserveAspectRatio="xMidYMid meet">

<g transform="translate(0.000000,2000.000000) scale(0.100000,-0.100000)"
fill="#000000" stroke="none">
<path d="M8714 16638 c-197 -263 -363 -528 -504 -803 -78 -152 -237 -524 -305
-710 -94 -260 -191 -632 -202 -781 l-6 -72 -27 16 c-15 9 -34 12 -45 8 -16 -6
-17 -18 -12 -144 3 -75 18 -231 33 -347 27 -198 28 -232 29 -585 0 -306 -3
-398 -18 -498 -17 -120 -17 -123 2 -161 11 -21 34 -50 51 -65 l32 -26 -45 0
c-60 0 -77 -8 -77 -34 0 -67 263 -372 1030 -1195 140 -151 276 -297 301 -325
l47 -51 -22 -37 c-11 -21 -23 -38 -26 -38 -6 0 -182 95 -600 325 -461 253
-1279 701 -1355 742 -90 48 -143 56 -152 23 -8 -32 -17 -24 -37 33 -43 124
-171 438 -212 518 -23 48 -81 151 -128 229 -137 228 -185 374 -216 656 -11
103 -25 204 -31 226 -12 46 -41 78 -70 78 -16 0 -19 3 -12 13 31 38 36 97 38
397 1 271 4 318 24 420 68 350 165 639 311 932 137 272 277 476 474 688 58 62
48 56 -86 -58 -161 -137 -310 -310 -460 -533 -254 -378 -395 -714 -536 -1274
-70 -274 -85 -361 -80 -466 l3 -88 -35 -3 c-45 -4 -49 -27 -15 -93 14 -28 70
-221 126 -435 177 -680 296 -1104 365 -1300 63 -184 160 -292 281 -318 l38 -8
-70 -23 c-97 -32 -115 -45 -115 -82 0 -51 43 -80 197 -134 316 -110 853 -321
1383 -545 533 -225 780 -334 780 -346 0 -4 -5 -24 -11 -45 -12 -38 -12 -38
-78 -45 -226 -24 -1790 67 -2506 146 -201 23 -266 18 -297 -20 -21 -27 -22
-70 -3 -125 20 -56 19 -58 -17 -38 -24 13 -56 18 -113 18 -130 0 -155 -17
-471 -338 -696 -706 -1225 -1223 -1372 -1341 -37 -29 -111 -79 -165 -110 -127
-74 -169 -111 -165 -145 2 -18 14 -32 39 -45 l35 -19 -46 -46 c-52 -53 -75
-111 -92 -238 -14 -102 4 -725 27 -941 33 -308 103 -619 214 -951 101 -301
208 -539 346 -766 71 -117 100 -156 67 -90 -36 72 -149 368 -180 470 -130 426
-195 881 -196 1365 -1 334 21 464 116 710 46 116 62 172 66 222 l5 68 37 -6
c67 -11 103 15 152 113 60 118 152 237 298 383 146 147 210 196 460 355 209
132 335 220 495 344 142 110 376 304 487 403 48 43 89 78 91 78 2 0 7 -18 10
-41 11 -83 61 -109 215 -109 192 0 758 42 1692 125 272 24 552 46 622 48 l127
5 -2 -64 c-2 -35 -7 -68 -12 -73 -17 -16 -950 -343 -1455 -509 -395 -130 -517
-167 -716 -217 -207 -53 -281 -83 -329 -136 -52 -58 -48 -116 12 -180 l25 -27
-62 -33 c-90 -48 -135 -104 -166 -208 -64 -212 -301 -965 -394 -1251 -205
-631 -320 -942 -421 -1138 -90 -173 -90 -204 -2 -218 l41 -6 -15 -37 c-22 -53
-12 -128 35 -256 22 -60 61 -177 87 -260 135 -432 370 -916 646 -1328 299
-447 701 -900 1112 -1251 191 -163 193 -161 20 15 -314 320 -539 596 -769 944
-407 617 -660 1228 -789 1909 -23 121 -36 168 -70 249 -6 15 -4 16 20 7 39
-15 70 -12 88 8 9 10 27 73 41 143 66 328 171 582 398 959 74 124 162 275 195
335 79 143 308 602 413 827 l82 177 33 -16 c51 -24 93 -10 227 79 394 260 888
524 1301 694 140 58 410 158 492 183 l63 18 41 -58 40 -59 -71 -36 c-359 -181
-758 -540 -1010 -909 -640 -938 -721 -2203 -207 -3227 394 -785 1104 -1347
1904 -1507 188 -38 277 -46 505 -46 228 0 317 8 505 46 723 145 1379 621 1790
1298 226 373 375 814 431 1276 22 188 23 550 0 740 -86 719 -394 1366 -879
1847 -184 182 -409 350 -633 472 l-91 50 38 54 c21 29 39 58 41 63 2 5 64 -10
138 -34 564 -185 1212 -504 1758 -865 134 -89 176 -103 227 -79 l33 16 82
-177 c117 -251 359 -732 439 -876 38 -66 125 -214 193 -328 192 -317 318 -626
372 -907 15 -80 32 -142 42 -153 19 -20 50 -23 89 -8 24 9 26 8 20 -7 -33 -80
-48 -134 -84 -314 -128 -647 -380 -1245 -778 -1848 -231 -350 -449 -617 -766
-941 -89 -90 -153 -158 -142 -149 195 149 557 494 766 729 525 590 924 1273
1145 1960 31 96 74 225 96 285 47 128 57 204 35 256 l-15 37 41 6 c88 14 88
46 1 213 -36 69 -84 172 -106 227 -127 319 -426 1231 -707 2152 -37 120 -77
173 -170 223 l-60 32 34 45 c48 63 48 109 0 163 -46 51 -121 83 -295 126 -211
53 -513 146 -980 304 -400 134 -1165 402 -1242 434 l-38 16 0 61 0 61 143 -6
c78 -4 342 -24 587 -46 1289 -113 1802 -146 1881 -120 49 16 80 51 86 100 3
23 7 41 9 41 3 0 59 -48 127 -108 339 -298 613 -506 944 -715 246 -156 316
-210 464 -358 146 -147 236 -263 297 -383 50 -97 85 -123 152 -112 l37 6 5
-68 c4 -50 20 -105 66 -222 93 -239 117 -381 116 -705 -1 -670 -122 -1274
-363 -1807 -16 -38 -28 -68 -26 -68 10 0 127 202 200 345 139 274 254 590 340
939 86 347 110 547 127 1052 16 482 1 591 -92 685 l-46 46 35 19 c78 42 43 91
-142 200 -62 36 -155 104 -211 152 -109 96 -808 774 -951 923 -49 52 -210 216
-358 366 -318 320 -342 338 -472 338 -58 0 -89 -5 -114 -19 l-34 -18 8 24 c40
128 30 165 -50 185 -42 11 -80 10 -240 -7 -253 -26 -469 -44 -890 -75 -726
-52 -1016 -67 -1363 -71 l-353 -3 -8 22 c-24 64 -25 62 41 89 35 14 119 52
188 83 485 221 1566 658 1972 797 134 46 178 77 178 127 0 37 -18 50 -115 82
l-70 23 38 8 c124 26 218 135 285 330 67 193 207 694 381 1363 44 171 92 332
106 360 34 66 30 89 -15 93 l-35 3 3 88 c5 108 -11 195 -89 501 -121 474 -231
752 -429 1084 -184 309 -412 579 -640 758 -51 40 -49 36 39 -62 391 -436 664
-1037 757 -1670 13 -91 15 -157 11 -315 -6 -220 2 -336 25 -383 15 -30 15 -30
-13 -36 -51 -10 -63 -54 -94 -342 -26 -239 -80 -396 -212 -615 -126 -210 -231
-439 -334 -731 -25 -71 -33 -81 -42 -48 -9 33 -62 25 -152 -23 -44 -24 -318
-174 -610 -334 -291 -160 -701 -384 -910 -498 -209 -114 -397 -218 -418 -231
-42 -28 -50 -26 -73 18 -16 30 -16 31 29 77 107 112 509 545 692 746 532 584
665 744 665 801 0 26 -17 34 -77 34 l-45 0 32 26 c17 15 40 44 51 65 19 38 19
42 3 151 -21 154 -30 645 -15 848 7 85 21 220 32 300 11 80 23 209 26 287 6
130 5 143 -12 149 -10 4 -29 0 -45 -9 l-27 -16 -6 78 c-12 148 -105 508 -201
770 -53 146 -180 452 -254 611 -119 260 -339 619 -551 900 -98 130 -120 157
-98 119 313 -532 466 -880 623 -1424 97 -332 129 -499 139 -715 7 -160 22
-272 41 -319 9 -21 11 -37 5 -40 -36 -23 -39 -122 -9 -234 19 -70 22 -107 22
-247 -1 -162 -1 -168 -47 -345 -66 -261 -96 -453 -113 -718 l-7 -118 -24 22
c-20 20 -25 21 -37 8 -8 -8 -89 -131 -181 -274 -444 -688 -541 -821 -788
-1072 l-90 -92 -71 66 c-39 36 -90 79 -113 96 l-42 30 29 33 c49 56 80 119 96
194 24 117 -1 221 -82 330 l-45 61 28 56 c50 103 40 226 -29 340 -30 50 -185
209 -195 200 -2 -2 12 -27 31 -55 46 -69 76 -152 76 -212 0 -57 -29 -142 -63
-184 l-24 -30 -64 21 c-35 12 -92 27 -126 33 l-63 13 -1 2136 c-1 1175 -3
2145 -4 2156 -1 11 -2 50 -3 86 l-2 66 -31 -5 c-20 -3 -34 0 -40 9 -7 11 -9
10 -9 -4 0 -14 -4 -16 -18 -8 -18 9 -19 3 -25 -111 -4 -67 -7 -1068 -7 -2225
l0 -2103 -32 0 c-39 0 -183 -34 -223 -52 -26 -12 -29 -10 -62 27 -35 41 -63
116 -63 171 0 51 37 155 75 212 20 28 31 52 26 52 -19 0 -158 -140 -188 -191
-41 -68 -66 -167 -61 -235 3 -28 17 -77 32 -108 l28 -56 -46 -60 c-80 -107
-106 -212 -82 -330 16 -75 47 -138 96 -194 l29 -32 -47 -36 c-26 -19 -72 -58
-103 -86 l-56 -51 -80 82 c-104 106 -213 232 -289 332 -81 107 -352 513 -575
864 -47 74 -94 140 -103 146 -13 8 -21 5 -35 -14 -18 -23 -18 -22 -25 90 -17
270 -46 462 -113 723 -46 178 -46 183 -47 346 0 140 3 177 22 247 31 114 27
211 -10 234 -7 4 -7 13 1 26 21 40 33 122 46 328 18 270 51 431 170 825 108
359 184 551 350 881 66 130 198 368 242 435 8 13 13 24 11 24 -2 0 -49 -60
-104 -132z m3316 -1728 c4 0 10 -10 13 -22 3 -13 10 -41 16 -63 18 -68 61
-341 61 -390 0 -49 -22 -115 -39 -115 -26 0 -39 51 -50 198 -6 83 -20 209 -31
278 -21 129 -20 155 6 129 9 -8 19 -15 24 -15z m-4030 8 c0 -9 4 -8 11 2 7 11
8 6 4 -20 -3 -19 -12 -79 -20 -133 -8 -54 -20 -167 -27 -250 -14 -191 -39
-245 -75 -160 -11 28 -14 57 -10 108 12 150 59 404 83 443 16 24 34 29 34 10z
m5889 -378 c41 -130 77 -277 95 -390 21 -133 39 -384 31 -437 -7 -45 -47 -104
-62 -90 -4 5 -8 99 -9 210 -1 212 -7 272 -54 532 -28 160 -45 283 -36 274 2
-2 18 -47 35 -99z m-5830 -1697 c14 -91 14 -228 1 -254 -20 -36 -89 -62 -165
-62 -38 0 -81 5 -95 11 l-25 9 36 15 c72 31 137 144 155 268 6 43 44 97 58 83
3 -4 6 0 6 7 0 9 3 10 9 5 5 -6 14 -42 20 -82z m3931 72 c5 3 10 1 10 -5 0 -6
5 -8 10 -5 6 3 10 4 10 2 0 -2 5 -30 11 -63 26 -150 82 -250 158 -282 l36 -15
-25 -9 c-14 -6 -56 -11 -95 -11 -76 0 -145 26 -165 62 -13 26 -13 143 1 253 9
71 14 86 25 77 7 -6 18 -8 24 -4z m-3712 -552 c181 -271 269 -422 216 -368 -9
9 -23 14 -31 11 -8 -4 -54 36 -120 105 -144 149 -196 174 -423 204 -123 16
-190 36 -212 62 -11 14 -10 15 7 10 99 -30 224 -35 301 -12 27 8 73 34 104 60
30 25 60 45 67 45 7 0 48 -53 91 -117z m3602 72 c30 -24 74 -51 99 -60 70 -24
206 -19 305 11 13 4 16 2 11 -6 -15 -25 -93 -49 -210 -65 -234 -31 -283 -55
-428 -204 -59 -61 -112 -111 -118 -111 -5 0 -8 -4 -5 -8 2 -4 -4 -8 -14 -8
-15 0 -17 4 -8 21 10 19 10 19 -7 5 -23 -19 -28 -27 88 155 148 230 207 315
220 315 7 0 37 -20 67 -45z m-5144 -517 c32 -90 31 -131 -6 -195 -41 -72 -128
-133 -189 -133 -19 0 -18 4 13 63 52 94 68 220 47 367 -5 30 -4 56 0 58 5 2 9
11 10 20 0 14 2 13 9 -3 8 -20 9 -20 9 1 1 11 4 24 9 28 8 9 62 -105 98 -206z
m6644 192 c18 29 27 -25 18 -100 -20 -153 3 -298 58 -380 28 -41 17 -49 -40
-30 -88 29 -176 134 -176 211 0 42 26 121 77 237 29 66 39 80 46 66 7 -12 11
-13 17 -4z m-3710 -83 c0 -2 -25 -21 -55 -41 -30 -21 -52 -43 -48 -49 4 -6 1
-7 -6 -2 -14 8 -13 11 49 59 41 31 60 42 60 33z m-148 -149 c-7 -7 -12 -8 -12
-2 0 5 -14 -11 -30 -36 -16 -25 -30 -41 -30 -36 0 5 14 31 31 58 23 35 35 46
42 39 8 -8 7 -15 -1 -23z m-2508 -117 c50 -26 178 -100 284 -164 172 -102 192
-117 174 -126 -34 -18 -65 -13 -163 30 -271 119 -323 118 -482 -7 -93 -74
-138 -94 -209 -94 -65 0 -77 14 -20 25 96 18 200 94 242 175 11 22 29 74 39
114 19 75 27 96 38 96 4 0 47 -22 97 -49z m6081 39 c3 -5 14 -43 25 -84 10
-41 28 -93 40 -116 42 -81 146 -157 243 -175 56 -11 44 -25 -20 -25 -73 0
-116 20 -216 98 -142 111 -205 117 -392 37 -60 -26 -123 -50 -140 -54 -16 -4
-41 -11 -54 -16 -18 -5 -22 -4 -15 6 6 11 3 10 -12 -1 -10 -8 -16 -10 -12 -6
4 5 4 14 -2 21 -6 8 6 20 43 42 29 17 99 59 157 94 124 74 332 189 342 189 4
0 9 -4 13 -10z m-571 -318 c3 -5 -1 -9 -9 -9 -8 0 -12 4 -9 9 3 4 7 8 9 8 2 0
6 -4 9 -8z m-2805 -164 c-34 -37 -71 -103 -75 -133 -18 -166 -20 -148 21 -222
35 -64 37 -73 36 -148 -1 -44 -6 -81 -11 -83 -5 -2 -12 -19 -16 -38 -3 -19 -8
-33 -11 -30 -3 2 -13 -3 -23 -12 -10 -9 -25 -22 -33 -29 -8 -7 -53 -16 -99
-21 -66 -7 -86 -7 -99 4 -27 24 -42 17 -36 -15 4 -21 -1 -40 -21 -70 -22 -35
-32 -41 -60 -41 l-33 0 20 26 c24 31 26 49 9 87 -18 38 -77 39 -107 1 -12 -15
-21 -32 -21 -39 0 -15 -48 -17 -57 -2 -4 7 0 8 11 4 13 -5 17 -3 13 7 -3 8 1
20 9 26 8 7 14 19 14 27 0 8 7 27 15 42 12 24 23 29 65 35 50 7 61 26 15 26
-13 0 -25 5 -27 11 -2 7 -30 12 -71 12 -67 0 -67 0 -53 21 8 11 25 39 37 61
40 75 159 223 240 299 116 109 224 180 323 211 58 18 58 18 25 -17z m-3281
-1004 c201 -14 254 -23 216 -38 -16 -6 -16 -8 -4 -16 11 -7 5 -10 -22 -10 -20
0 -38 -4 -40 -9 -1 -5 -74 -14 -160 -20 -189 -12 -234 -27 -263 -87 -17 -37
-21 -53 -24 -103 -1 -16 -5 -21 -16 -17 -10 4 -15 -1 -15 -16 0 -44 -18 0 -65
155 -26 87 -44 165 -41 173 7 18 19 17 434 -12z m7555 -14 c-1 -19 -22 -93
-45 -164 -37 -111 -46 -130 -64 -131 -19 -1 -22 5 -26 44 -7 74 -35 121 -85
143 -37 16 -196 34 -336 38 -5 0 -5 5 -2 10 3 6 -4 10 -17 10 -31 0 -106 38
-87 44 8 3 115 12 239 21 327 22 321 22 375 21 l50 -1 -2 -35z m-8179 -159
c62 -39 126 -136 126 -193 0 -18 -5 -16 -39 15 -75 67 -160 71 -292 13 -75
-33 -182 -99 -253 -155 -21 -17 -43 -28 -48 -25 -6 4 -14 1 -18 -6 -5 -8 -9
-7 -14 6 -4 10 -4 15 0 11 9 -8 36 12 29 23 -10 16 307 296 378 333 33 17 79
10 131 -22z m8540 0 c53 -37 209 -172 298 -259 59 -57 65 -67 51 -77 -14 -10
-28 -4 -82 34 -261 186 -414 222 -522 124 -34 -31 -39 -33 -39 -15 0 58 61
150 128 193 61 39 109 39 166 0z m-4769 -1171 c265 -26 505 -107 742 -251 106
-65 204 -140 196 -151 -3 -6 -1 -8 4 -5 12 8 85 -52 78 -63 -3 -5 -1 -11 5
-15 5 -3 10 -42 10 -86 0 -46 4 -79 10 -79 6 0 10 -8 10 -19 0 -10 7 -38 16
-62 16 -44 39 -306 51 -583 5 -112 3 -137 -7 -131 -9 5 -11 4 -6 -3 12 -19 26
-14 27 11 l2 22 4 -23 c2 -12 9 -20 14 -16 13 8 81 -25 74 -35 -2 -5 -25 -6
-50 -3 -57 6 -61 -13 -5 -21 44 -6 88 -30 97 -53 3 -8 -2 -29 -10 -47 -8 -17
-18 -42 -22 -54 -3 -13 -11 -23 -16 -23 -5 0 -9 -7 -9 -15 0 -19 -122 -141
-150 -150 -12 -4 -28 -1 -36 6 -8 6 -16 10 -18 8 -13 -17 -46 -103 -46 -120 0
-12 -18 -41 -40 -65 -24 -26 -40 -53 -40 -68 0 -15 -18 -48 -44 -79 -24 -30
-56 -74 -71 -98 -15 -24 -37 -54 -48 -66 -11 -13 -18 -23 -14 -23 3 0 -5 -11
-19 -25 -14 -14 -29 -25 -34 -25 -6 0 -10 -4 -10 -10 0 -5 -9 -19 -20 -30 -11
-11 -20 -17 -20 -13 0 3 -10 -3 -22 -14 -13 -12 -48 -37 -78 -56 -30 -19 -70
-49 -89 -67 -18 -17 -54 -38 -80 -46 -25 -9 -62 -28 -81 -43 -19 -16 -45 -31
-58 -35 -12 -4 -22 -12 -22 -17 0 -6 -4 -7 -10 -4 -5 3 -10 2 -10 -3 0 -12
-69 -49 -108 -57 -18 -4 -39 -13 -47 -21 -12 -12 -71 -16 -312 -21 l-298 -6
-170 52 c-93 28 -196 64 -227 80 -32 16 -58 26 -58 21 0 -5 -34 12 -75 38 -41
26 -75 52 -75 59 0 6 -21 21 -47 34 -59 28 -193 130 -213 161 -8 12 -36 44
-62 69 -27 25 -48 49 -48 53 0 7 -111 156 -137 184 -6 6 -14 12 -18 12 -10 0
-35 27 -35 38 0 6 -4 12 -8 14 -5 2 -34 48 -64 103 -43 78 -56 113 -61 160 -3
33 -11 61 -17 63 -5 2 -10 11 -10 20 0 14 -2 14 -9 3 -7 -11 -11 -9 -21 9 -21
39 8 125 110 325 111 217 253 435 395 604 88 105 308 320 390 383 280 213 557
338 815 367 108 12 132 12 255 1z m-2525 -12 c-13 -5 -33 -17 -43 -26 -18 -16
-18 -17 5 -23 l23 -7 -22 -1 c-13 -1 -23 -5 -23 -11 0 -5 -8 -10 -18 -10 -10
0 -22 -4 -27 -8 -6 -5 -50 -26 -100 -46 -131 -55 -223 -105 -245 -134 -25 -31
-26 -101 -4 -144 9 -18 12 -33 7 -37 -6 -3 -14 -14 -19 -23 -9 -16 -13 -15
-42 12 -18 16 -32 26 -32 24 0 -3 -13 5 -29 18 -16 12 -77 54 -135 91 -58 38
-106 75 -106 82 0 19 68 43 414 145 166 49 312 93 326 98 14 5 41 9 60 9 33 1
33 0 10 -9z m6063 -34 c485 -141 627 -188 627 -209 0 -7 -65 -56 -144 -109
-79 -53 -151 -103 -159 -111 -21 -20 -30 -19 -24 4 3 12 -1 18 -12 17 -11 -1
-15 6 -13 24 14 110 14 125 -8 153 -14 18 -70 51 -149 88 -172 82 -216 105
-214 117 1 5 -18 18 -43 28 -36 15 -41 20 -27 26 29 11 38 10 166 -28z m-2458
-464 c10 -11 16 -20 13 -20 -3 0 -13 9 -23 20 -10 11 -16 20 -13 20 3 0 13 -9
23 -20z m-4391 -64 c55 -17 118 -58 140 -90 14 -23 14 -23 -34 -18 -66 6 -111
-11 -173 -68 -64 -58 -128 -151 -191 -277 -25 -50 -50 -94 -56 -98 -6 -3 -7
-12 -4 -18 5 -9 4 -9 -6 0 -9 9 -19 9 -32 2 -11 -6 -22 -9 -24 -7 -11 12 105
361 162 485 27 59 40 76 66 88 43 18 93 19 152 1z m7602 -1 c29 -12 40 -27 70
-92 43 -93 150 -411 158 -468 4 -32 4 -35 -4 -17 -5 13 -14 20 -20 17 -5 -3
-10 0 -10 7 0 8 -5 6 -11 -5 -9 -15 -19 -2 -66 90 -76 148 -134 232 -198 291
-64 58 -108 76 -175 70 -48 -5 -48 -5 -34 18 18 27 84 71 133 89 48 18 114 18
157 0z m-10015 -83 c52 -27 99 -79 99 -109 0 -10 -12 -6 -37 14 -54 41 -81 56
-145 82 -32 13 -55 27 -52 32 11 19 83 8 135 -19z m12419 18 c11 -7 11 -10 2
-10 -24 0 -166 -70 -204 -101 -44 -35 -50 -21 -15 32 41 62 170 109 217 79z
m-12400 -305 c0 -14 -13 -51 -29 -83 -15 -31 -41 -95 -56 -142 -27 -84 -45
-119 -45 -89 0 12 -1 12 -9 0 -8 -12 -11 -10 -16 10 -11 46 61 265 102 311 24
27 53 23 53 -7z m12293 7 c42 -46 113 -268 102 -315 -13 -48 -34 -24 -66 72
-18 53 -45 122 -60 153 -34 68 -38 108 -11 108 11 0 26 -8 35 -18z m-5293
-775 c0 -42 -42 -127 -63 -127 -4 0 -28 -9 -53 -21 -25 -11 -57 -19 -71 -17
-22 3 -17 10 57 73 44 39 90 85 101 103 11 17 23 32 25 32 2 0 4 -19 4 -43z
m-3283 1 c-3 -7 -5 -2 -5 12 0 14 2 19 5 13 2 -7 2 -19 0 -25z m-2209 -1417
c34 -17 83 -61 69 -61 -3 0 -18 5 -34 11 -48 18 -231 37 -244 25 -9 -8 -10 -7
-4 2 23 42 150 55 213 23z m9400 3 c33 -14 35 -17 17 -24 -11 -5 -49 -9 -85
-10 -59 0 -89 -5 -160 -26 l-25 -7 20 22 c51 58 156 78 233 45z m-2293 -102
c-8 -56 -15 -104 -15 -108 0 -3 -5 -2 -11 2 -8 5 -10 -1 -7 -21 3 -15 0 -39
-8 -53 -7 -15 -11 -37 -7 -51 4 -17 2 -22 -6 -17 -10 6 -16 -24 -12 -60 1 -11
-67 -221 -97 -297 -10 -26 -22 -44 -27 -40 -4 5 -5 3 -2 -4 4 -6 -1 -31 -12
-55 -24 -56 -102 -218 -105 -218 -1 0 -2 9 -3 20 -1 11 2 18 7 15 6 -3 7 1 3
11 -5 14 -8 13 -19 -7 -7 -14 -9 -30 -4 -39 9 -15 -28 -97 -58 -129 -9 -10
-18 -23 -20 -30 -4 -20 -34 -61 -44 -61 -5 0 -7 -4 -4 -9 7 -11 -149 -218
-198 -263 -20 -18 -36 -38 -36 -43 0 -13 -65 -75 -78 -75 -11 0 -48 -43 -55
-63 -3 -9 -8 -9 -20 2 -16 13 -20 11 -14 -6 1 -5 5 -7 10 -5 4 1 7 -2 7 -6 0
-15 -68 -69 -84 -66 -8 1 -21 -5 -28 -14 -10 -12 -10 -14 0 -8 6 4 12 3 12 -3
0 -11 -134 -121 -148 -121 -5 0 -30 -18 -55 -40 -25 -22 -48 -40 -52 -40 -4 0
-20 -9 -36 -21 -16 -11 -34 -17 -41 -13 -7 4 -10 4 -6 -1 11 -12 -54 -55 -142
-94 -14 -6 -32 -15 -40 -20 -28 -16 -190 -91 -197 -91 -5 0 -63 -18 -129 -40
-67 -21 -137 -42 -155 -45 -19 -3 -50 -10 -69 -15 -54 -13 -234 -40 -324 -48
-132 -11 -336 -4 -491 18 -80 11 -151 20 -157 21 -7 0 -4 5 7 10 17 8 15 8 -8
4 -25 -5 -157 23 -209 45 -13 5 -69 25 -126 46 -57 20 -101 38 -99 41 3 2 38
-3 78 -12 41 -8 85 -15 99 -15 14 0 52 -8 85 -18 54 -16 91 -17 365 -11 310 6
462 22 625 65 33 9 83 21 110 28 28 7 61 17 75 23 14 6 66 24 115 38 110 34
235 86 335 142 41 22 116 62 165 88 104 55 194 114 248 162 20 18 43 33 50 33
7 0 26 14 43 31 16 17 45 41 64 54 19 12 60 47 91 76 30 30 64 61 75 71 33 28
167 178 234 262 64 80 77 98 156 221 21 33 42 65 46 70 47 56 209 384 233 472
10 35 20 61 24 59 4 -3 26 73 50 167 54 218 52 209 57 204 3 -2 -2 -50 -11
-105z m2195 -283 c0 -116 -219 -826 -242 -785 -12 21 -5 61 32 189 16 57 59
218 94 356 60 235 84 300 107 285 5 -3 9 -23 9 -45z"/>
<path d="M10560 8526 c0 -3 9 -10 20 -16 11 -6 20 -8 20 -6 0 3 -9 10 -20 16
-11 6 -20 8 -20 6z"/>
<path d="M10717 7394 c-14 -15 -6 -54 13 -64 31 -16 62 4 58 38 -2 22 -9 28
-33 30 -17 2 -34 0 -38 -4z"/>
<path d="M10645 7254 c-9 -30 -15 -57 -13 -59 2 -3 20 0 40 5 54 15 59 73 9
99 -16 9 -21 4 -36 -45z"/>
<path d="M11783 4298 c-9 -11 -14 -48 -8 -48 2 0 9 8 16 17 10 11 10 14 2 9
-16 -9 -17 6 -1 22 7 7 9 12 6 12 -3 0 -10 -6 -15 -12z"/>
<path d="M11610 4109 c0 -5 5 -7 10 -4 6 3 10 8 10 11 0 2 -4 4 -10 4 -5 0
-10 -5 -10 -11z"/>
<path d="M9578 3493 c6 -2 18 -2 25 0 6 3 1 5 -13 5 -14 0 -19 -2 -12 -5z"/>
</g>
</svg>
